<?xml version="1.0" encoding="utf-8"?>
<!-- Generator: Adobe Illustrator 23.0.2, SVG Export Plug-In . SVG Version: 6.00 Build 0)  -->
<svg version="1.1" id="Layer_1" xmlns="http://www.w3.org/2000/svg" xmlns:xlink="http://www.w3.org/1999/xlink" x="0px" y="0px"
	 viewBox="0 0 217.2 75.8" style="enable-background:new 0 0 217.2 75.8;" xml:space="preserve">
<style type="text/css">
	.st0{fill:#1F1F1F;}
</style>
<g>
	<g>
		<g>
			<path class="st0" d="M2.7,75.5V53.6h2.8c0.6,0,1,0.3,1.2,0.9L7,56.4c0.4-0.5,0.8-0.9,1.2-1.3c0.4-0.4,0.9-0.7,1.4-1
				s1-0.5,1.6-0.7s1.2-0.2,1.8-0.2c0.7,0,1.3,0.1,1.9,0.3c0.6,0.2,1.1,0.5,1.6,0.9s0.8,0.8,1.2,1.4c0.3,0.5,0.6,1.1,0.8,1.8
				c0.3-0.8,0.7-1.4,1.2-2c0.5-0.5,1.1-1,1.7-1.3s1.3-0.6,2-0.8s1.4-0.2,2.1-0.2c1.2,0,2.2,0.2,3.1,0.6s1.7,0.9,2.3,1.6
				s1.1,1.6,1.5,2.6c0.3,1,0.5,2.2,0.5,3.5v14h-4.6v-14c0-1.5-0.3-2.7-1-3.5s-1.7-1.2-3-1.2c-0.6,0-1.1,0.1-1.7,0.3s-1,0.5-1.4,0.9
				s-0.7,0.9-0.9,1.5c-0.2,0.6-0.3,1.3-0.3,2v14h-4.6v-14c0-1.6-0.3-2.8-1-3.5S12.8,57,11.6,57c-0.9,0-1.7,0.2-2.4,0.7
				c-0.7,0.4-1.4,1-2,1.8v16.2H2.7V75.5z"/>
			<path class="st0" d="M40,56.6c2.5-2.3,5.4-3.5,8.9-3.5c1.3,0,2.4,0.2,3.4,0.6c1,0.4,1.8,1,2.5,1.7s1.2,1.6,1.5,2.7
				c0.4,1,0.5,2.2,0.5,3.4v13.9h-2.1c-0.4,0-0.8-0.1-1-0.2s-0.4-0.4-0.6-0.8l-0.5-1.8c-0.6,0.5-1.1,0.9-1.7,1.3
				c-0.5,0.4-1.1,0.7-1.7,1c-0.6,0.3-1.2,0.5-1.9,0.6s-1.4,0.2-2.2,0.2c-0.9,0-1.7-0.1-2.5-0.4s-1.4-0.6-2-1.1s-1-1.1-1.3-1.8
				C39.1,71.8,39,70.9,39,70c0-0.8,0.2-1.7,0.7-2.5s1.2-1.5,2.2-2.2c1-0.6,2.4-1.2,4.1-1.6c1.7-0.4,3.8-0.7,6.3-0.7v-1.5
				c0-1.6-0.3-2.8-1-3.5s-1.7-1.2-3-1.2c-0.9,0-1.6,0.1-2.2,0.3s-1.1,0.5-1.6,0.7c-0.4,0.3-0.8,0.5-1.2,0.7C43,58.9,42.6,59,42.2,59
				c-0.3,0-0.6-0.1-0.8-0.2c-0.2-0.2-0.4-0.4-0.5-0.6L40,56.6z M52.3,65.9c-1.6,0.1-3,0.2-4.2,0.4c-1.1,0.2-2,0.5-2.8,0.8
				c-0.7,0.3-1.2,0.7-1.5,1.1s-0.5,0.9-0.5,1.5c0,0.5,0.1,1,0.2,1.3c0.2,0.4,0.4,0.7,0.7,0.9c0.3,0.2,0.6,0.4,1,0.5s0.8,0.2,1.3,0.2
				c1.2,0,2.2-0.2,3.1-0.7c0.9-0.5,1.7-1.1,2.5-2v-4H52.3z"/>
			<path class="st0" d="M68.7,57.6c0.7-1.4,1.5-2.5,2.5-3.3s2.1-1.2,3.5-1.2c0.5,0,0.9,0.1,1.3,0.2c0.4,0.1,0.8,0.3,1.1,0.5
				l-0.3,3.5c-0.1,0.2-0.1,0.4-0.3,0.5s-0.3,0.1-0.5,0.1s-0.5,0-0.9-0.1s-0.8-0.1-1.3-0.1c-0.6,0-1.2,0.1-1.7,0.3s-0.9,0.5-1.3,0.8
				c-0.4,0.4-0.7,0.8-1,1.3s-0.6,1.1-0.8,1.8v13.6h-4.6V53.6H67c0.5,0,0.8,0.1,1,0.3s0.3,0.5,0.4,0.9L68.7,57.6z"/>
			<path class="st0" d="M87,43.7v18.4h1c0.3,0,0.6,0,0.8-0.1s0.4-0.3,0.6-0.5l6.2-7c0.2-0.3,0.5-0.5,0.7-0.6s0.6-0.2,1-0.2h4.2
				L94,61.9c-0.4,0.6-0.9,1-1.4,1.3c0.3,0.2,0.5,0.4,0.8,0.7c0.2,0.3,0.4,0.5,0.6,0.8l7.9,10.7h-4.1c-0.4,0-0.7-0.1-1-0.2
				s-0.5-0.3-0.7-0.7L89.7,66c-0.2-0.3-0.4-0.5-0.6-0.6s-0.5-0.1-1-0.1H87v10.2h-4.6V43.7H87z"/>
			<path class="st0" d="M109.1,64.9c0.1,1.2,0.3,2.3,0.6,3.2c0.3,0.9,0.8,1.7,1.3,2.3c0.6,0.6,1.2,1.1,2,1.3
				c0.8,0.3,1.6,0.4,2.6,0.4c0.9,0,1.7-0.1,2.3-0.3c0.7-0.2,1.2-0.4,1.7-0.7s0.9-0.5,1.2-0.7c0.3-0.2,0.7-0.3,0.9-0.3
				c0.4,0,0.7,0.1,0.9,0.4l1.3,1.7c-0.5,0.6-1.2,1.2-1.8,1.6c-0.7,0.4-1.4,0.8-2.2,1.1c-0.8,0.3-1.6,0.5-2.4,0.6s-1.6,0.2-2.4,0.2
				c-1.5,0-2.9-0.3-4.2-0.8c-1.3-0.5-2.4-1.3-3.4-2.2s-1.7-2.2-2.2-3.7s-0.8-3.1-0.8-5.1c0-1.5,0.2-2.9,0.7-4.3
				c0.5-1.3,1.2-2.5,2.1-3.4s2-1.7,3.3-2.3s2.7-0.8,4.4-0.8c1.3,0,2.6,0.2,3.7,0.7c1.1,0.4,2.1,1.1,3,1.9s1.5,1.9,1.9,3.1
				s0.7,2.6,0.7,4.2c0,0.7-0.1,1.2-0.2,1.4c-0.2,0.2-0.4,0.4-0.9,0.4L109.1,64.9L109.1,64.9z M120.2,62.1c0-0.8-0.1-1.5-0.3-2.2
				c-0.2-0.7-0.5-1.2-1-1.7s-1-0.9-1.6-1.2s-1.4-0.4-2.2-0.4c-1.7,0-3,0.5-4,1.4c-1,1-1.6,2.3-1.8,4h10.9V62.1z"/>
			<path class="st0" d="M137.6,75.8c-1.8,0-3.2-0.5-4.2-1.5s-1.5-2.5-1.5-4.3V57.2h-2.4c-0.3,0-0.5-0.1-0.7-0.2
				c-0.2-0.2-0.3-0.4-0.3-0.7v-1.9l3.5-0.5l1-6.3c0.1-0.2,0.2-0.4,0.4-0.6c0.2-0.2,0.4-0.2,0.7-0.2h2.4V54h6.1v3.3h-6.1v12.4
				c0,0.8,0.2,1.4,0.6,1.8c0.4,0.4,0.9,0.6,1.5,0.6c0.4,0,0.7,0,0.9-0.1s0.5-0.2,0.7-0.3s0.3-0.2,0.5-0.3c0.1-0.1,0.3-0.1,0.4-0.1
				c0.3,0,0.5,0.1,0.6,0.4l1.4,2.3c-0.7,0.6-1.6,1.1-2.5,1.5C139.6,75.7,138.6,75.8,137.6,75.8z"/>
			<path class="st0" d="M170.8,68.6c0.3,0,0.5,0.1,0.7,0.3l2,2.2c-1.3,1.5-2.8,2.7-4.6,3.5s-4,1.2-6.6,1.2c-2.3,0-4.3-0.4-6.1-1.2
				c-1.8-0.8-3.4-1.9-4.7-3.3s-2.3-3.1-3-5s-1-4.1-1-6.4s0.4-4.5,1.1-6.4c0.7-1.9,1.8-3.6,3.1-5s2.9-2.5,4.8-3.3s3.9-1.2,6.2-1.2
				c2.2,0,4.2,0.4,5.9,1.1c1.7,0.7,3.2,1.7,4.5,2.9l-1.7,2.3c-0.1,0.2-0.3,0.3-0.4,0.4c-0.2,0.1-0.4,0.2-0.6,0.2
				c-0.3,0-0.6-0.1-1-0.4c-0.4-0.3-0.8-0.6-1.4-0.9c-0.6-0.3-1.3-0.6-2.1-0.9c-0.9-0.3-1.9-0.4-3.2-0.4c-1.5,0-2.8,0.3-4.1,0.8
				c-1.2,0.5-2.3,1.3-3.2,2.3s-1.6,2.2-2.1,3.6c-0.5,1.4-0.7,3-0.7,4.8s0.3,3.4,0.8,4.9c0.5,1.4,1.2,2.6,2.1,3.6
				c0.9,1,2,1.7,3.2,2.2s2.5,0.8,3.9,0.8c0.9,0,1.6,0,2.3-0.1s1.3-0.2,1.9-0.5c0.6-0.2,1.1-0.5,1.6-0.8s1-0.7,1.5-1.2
				C170.2,68.7,170.5,68.6,170.8,68.6z"/>
			<path class="st0" d="M178.6,56.6c2.5-2.3,5.4-3.5,8.9-3.5c1.3,0,2.4,0.2,3.4,0.6c1,0.4,1.8,1,2.5,1.7s1.2,1.6,1.5,2.7
				c0.4,1,0.5,2.2,0.5,3.4v13.9h-2.1c-0.4,0-0.8-0.1-1-0.2s-0.4-0.4-0.6-0.8l-0.5-1.8c-0.6,0.5-1.1,0.9-1.7,1.3
				c-0.5,0.4-1.1,0.7-1.7,1c-0.6,0.3-1.2,0.5-1.9,0.6s-1.4,0.2-2.2,0.2c-0.9,0-1.7-0.1-2.5-0.4c-0.8-0.2-1.4-0.6-2-1.1
				s-1-1.1-1.3-1.8c-0.3-0.7-0.5-1.6-0.5-2.6c0-0.8,0.2-1.7,0.7-2.5s1.2-1.5,2.2-2.2s2.4-1.2,4.1-1.6c1.7-0.4,3.8-0.7,6.3-0.7v-1.5
				c0-1.6-0.3-2.8-1-3.5s-1.7-1.2-3-1.2c-0.9,0-1.6,0.1-2.2,0.3c-0.6,0.2-1.1,0.5-1.6,0.7c-0.4,0.3-0.8,0.5-1.2,0.7
				s-0.7,0.3-1.1,0.3c-0.3,0-0.6-0.1-0.8-0.2c-0.2-0.2-0.4-0.4-0.5-0.6L178.6,56.6z M190.9,65.9c-1.6,0.1-3,0.2-4.2,0.4
				c-1.1,0.2-2,0.5-2.8,0.8c-0.7,0.3-1.2,0.7-1.5,1.1s-0.5,0.9-0.5,1.5c0,0.5,0.1,1,0.2,1.3c0.2,0.4,0.4,0.7,0.7,0.9
				c0.3,0.2,0.6,0.4,1,0.5s0.8,0.2,1.3,0.2c1.2,0,2.2-0.2,3.1-0.7c0.9-0.5,1.7-1.1,2.5-2v-4H190.9z"/>
			<path class="st0" d="M207.3,57.6c0.7-1.4,1.5-2.5,2.5-3.3s2.1-1.2,3.5-1.2c0.5,0,0.9,0.1,1.3,0.2c0.4,0.1,0.8,0.3,1.1,0.5
				l-0.3,3.5c-0.1,0.2-0.1,0.4-0.3,0.5s-0.3,0.1-0.5,0.1s-0.5,0-0.9-0.1s-0.8-0.1-1.3-0.1c-0.6,0-1.2,0.1-1.7,0.3s-0.9,0.5-1.3,0.8
				c-0.4,0.4-0.7,0.8-1,1.3s-0.6,1.1-0.8,1.8v13.6H203V53.6h2.7c0.5,0,0.8,0.1,1,0.3s0.3,0.5,0.4,0.9L207.3,57.6z"/>
		</g>
	</g>
	<g>
		<g>
			<g>
				<path class="st0" d="M112.1,2.7c2.7,0.4,8.5,6,8.5,6s-10.5-3.1-22.3-4.3C86.5,3.3,77,6.2,77,6.2s0.4-1.4,5.2-2.9
					C87.1,1.8,109.4,2.3,112.1,2.7z"/>
				<path class="st0" d="M87.9,1.4c-7.6,0.4-13,3.5-15.7,6S66,8.6,62.7,8.8c0,0,8.2-3.5,12.2-5.4c4-2,10.4-3.6,21.5-3.4
					s13.4-0.2,17.5,1.4C113.9,1.4,95.4,1,87.9,1.4z"/>
				<path class="st0" d="M43.6,26.8c9.1,2.3,7.6,1.7,11.5-2.9c1.2-1.4,2.6-2.4,4.3-3.2c-2.2,2-3.6,4.8-3.6,8
					c0,5.9,4.8,10.7,10.7,10.7s10.7-4.8,10.7-10.7c0-4.4-2.7-8.3-6.6-9.9c1.1,0,2.2,0,3.4,0c8.2,0,5.4,10.7,7,12.2
					c1.6,1.6,39.8,1.7,48.7,1.7s7.2,0,8.9-4.3c0.5-1.1,1.2-2.3,2.2-3.3c-0.4,1.1-0.6,2.3-0.6,3.5c0,5.9,4.8,10.7,10.7,10.7
					s10.7-4.8,10.7-10.7c0-3.4-1.6-6.4-4-8.4c3.6,1.1,4.6,3.6,5,5c0.6,1.9-0.6,4.3,3.9,4.1c3.6-0.2,6-4.6,7.3-9.5
					c0.5-2.1,0.4-3.1-2.3-3.7c-3.8-0.8-12-2-22-2.8c-8.8-0.7-14-0.8-17.6-0.7c-0.1,0-0.2-0.1-0.2-0.1c-4.3-2.2-16-10.5-16.6-10.5
					c-0.4,0,8.6,7.3,13,10.9c-1.5,0.2-2.8,0.4-4.1,0.5c-4.7,0.6-22.3,1.7-28,1.6c-5.6-0.2-14.6-3.9-19.6-4.1c-5.2,0-14.4-2.1-26.4-1
					c-12,1.2-14.4,3.5-14.4,3.5C33.5,14.8,34.5,24.5,43.6,26.8z M141.1,28.8c0-2.1,0.6-4,1.7-5.5c2.6-2,6.2-3.4,10.2-3.4
					c0.5,0,1,0,1.4,0.1c3.5,1.5,5.9,4.9,5.9,8.9c0,5.3-4.3,9.6-9.6,9.6C145.5,38.4,141.1,34.1,141.1,28.8z M137.6,25.5
					c0,0,0.9-5.9,6.5-8.3c5.6-2.3,13.7,0.5,13.7,0.5C141.3,15.2,137.6,25.5,137.6,25.5z M63.9,19.4c0.8-0.1,1.6-0.2,2.5-0.3
					c5.3,0,9.6,4.3,9.6,9.6s-4.3,9.6-9.6,9.6s-9.6-4.3-9.6-9.6C56.7,24.3,59.8,20.5,63.9,19.4z M53.6,23.2c0,0,0.9-5.9,6.5-8.3
					c5.6-2.3,13.7,0.5,13.7,0.5C57.3,12.9,53.6,23.2,53.6,23.2z"/>
				<path class="st0" d="M142.7,28.8c0,4.5,3.6,8.1,8.1,8.1s8.1-3.6,8.1-8.1s-3.6-8.1-8.1-8.1S142.7,24.3,142.7,28.8z M147,28.8
					c0-2.1,1.7-3.8,3.8-3.8s3.8,1.7,3.8,3.8s-1.7,3.8-3.8,3.8S147,30.9,147,28.8z"/>
				<path class="st0" d="M58.3,28.8c0,4.5,3.6,8.1,8.1,8.1s8.1-3.6,8.1-8.1s-3.6-8.1-8.1-8.1S58.3,24.3,58.3,28.8z M62.6,28.8
					c0-2.1,1.7-3.8,3.8-3.8c2.1,0,3.8,1.7,3.8,3.8s-1.7,3.8-3.8,3.8C64.3,32.6,62.6,30.9,62.6,28.8z"/>
			</g>
		</g>
		<rect y="38.7" class="st0" width="57.2" height="1.4"/>
		<rect x="160" y="38.7" class="st0" width="57.2" height="1.4"/>
	</g>
</g>
</svg>
